<?xml version="1.0" encoding="utf-8"?>
<!-- Generator: Adobe Illustrator 23.0.1, SVG Export Plug-In . SVG Version: 6.00 Build 0)  -->
<svg version="1.1" id="Layer_1" xmlns="http://www.w3.org/2000/svg" xmlns:xlink="http://www.w3.org/1999/xlink" x="0px" y="0px"
	 viewBox="0 0 830.3 584.3" style="enable-background:new 0 0 830.3 584.3;" xml:space="preserve">
<style type="text/css">
	.st0{fill:none;stroke:#000000;stroke-width:2;stroke-miterlimit:10;}
	.st1{font-family:'RoslynGothic';}
	.st2{font-size:18px;}
	.st3{font-family:'Helvetica';}
	.st4{font-size:14px;}
	.st5{fill:#808285;}
	.st6{font-size:12px;}
</style>
<rect x="22.5" y="23.4" class="st0" width="784.5" height="537.5"/>
<text transform="matrix(1 0 0 1 78.9944 75.7088)" class="st1 st2">RUSSIAN HOUSE</text>
<text transform="matrix(1.05 0 0 1 730.9905 75.7088)" class="st3 st4">EN</text>
<text transform="matrix(1.05 0 0 1 646.9896 120.9852)" class="st3 st4">CONTACTS</text>
<text transform="matrix(1.05 0 0 1 645.9896 139.2459)" class="st5 st3 st6">118 GREEVES ST</text>
<text transform="matrix(1.05 0 0 1 78.994 120.9852)" class="st3 st4">ABOUT</text>
<text transform="matrix(1.05 0 0 1 78.994 139.2459)" class="st5 st3 st6">HISTORY</text>
<text transform="matrix(1.05 0 0 1 78.994 153.5199)" class="st5 st3 st6">MISSION</text>
<text transform="matrix(1.05 0 0 1 189.4647 120.9852)" class="st3 st4">EVENTS</text>
<text transform="matrix(1.05 0 0 1 189.4647 139.2459)" class="st5 st3 st6">WHAT’S ON</text>
<text transform="matrix(1.05 0 0 1 189.4647 153.5199)" class="st5 st3 st6">PAST EVENTS</text>
<text transform="matrix(1.05 0 0 1 504.4632 120.9852)" class="st3 st4">SUPPORT US</text>
<text transform="matrix(1.05 0 0 1 504.4632 139.2459)" class="st5 st3 st6">VOLUNTEER</text>
<text transform="matrix(1.05 0 0 1 504.4632 153.5199)" class="st5 st3 st6">DONATE</text>
<text transform="matrix(1.05 0 0 1 415.7142 120.9852)" class="st3 st4">HIRE</text>
<text transform="matrix(1.05 0 0 1 415.7142 139.2459)" class="st5 st3 st6">LEVEL 0</text>
<text transform="matrix(1.05 0 0 1 415.7142 153.5199)" class="st5 st3 st6">LEVEL 1</text>
<text transform="matrix(1.05 0 0 1 415.7142 167.286)" class="st5 st3 st6">KITCHEN</text>
<text transform="matrix(1.05 0 0 1 301.929 120.9852)" class="st3 st4">LIBRARY</text>
<text transform="matrix(1.05 0 0 1 646.9896 153.5199)" class="st5 st3 st6">3065 FITZROY</text>
<rect x="199.5" y="370.8" width="86.2" height="7"/>
<rect x="329.9" y="451.6" width="178.5" height="7.7"/>
<line class="st0" x1="683.3" y1="5.1" x2="518.2" y2="302"/>
<line class="st0" x1="825.5" y1="240.1" x2="99" y2="240.1"/>
</svg>
